<svg width="28" height="28" viewBox="0 0 28 28" xmlns="http://www.w3.org/2000/svg">
<path fill-rule="evenodd" clip-rule="evenodd" d="M14 0C21.732 0 28 6.26801 28 14C28 21.732 21.732 28 14 28C6.26801 28 0 21.732 0 14C0 6.26801 6.26801 0 14 0ZM17.7299 12.2257C17.6618 11.6725 17.4918 11.2382 17.1898 10.8535C16.7977 10.358 16.2967 10.0614 15.5549 9.8854C15.0714 9.7681 14.8761 9.78157 14.7013 9.94128C14.5384 10.0909 14.5066 10.3909 14.6311 10.5851C14.7186 10.7261 14.8196 10.7766 15.1004 10.8318C15.4744 10.9006 15.7328 10.9899 15.9679 11.1243C16.4669 11.4124 16.6993 11.8633 16.7242 12.5933C16.7358 12.936 16.7654 13.0414 16.8851 13.1629C17.107 13.3851 17.5019 13.3419 17.6694 13.076C17.7308 12.9758 17.7402 12.9322 17.7467 12.6994C17.751 12.5554 17.7448 12.3409 17.7299 12.2257ZM17.7365 8.83176C18.9229 9.79112 19.5858 11.1547 19.6843 12.8495C19.7258 13.517 19.6707 13.7344 19.4352 13.8582C19.2227 13.973 18.9819 13.9352 18.8168 13.7625C18.7073 13.6501 18.6653 13.4964 18.6669 13.2243C18.6717 12.472 18.4984 11.6318 18.2166 11.0488C17.8904 10.3702 17.3862 9.79278 16.7519 9.3706C16.1963 8.99981 15.461 8.74935 14.7481 8.68698C14.2857 8.64652 14.1206 8.5682 14.0318 8.34652C13.9768 8.21391 13.9914 7.98466 14.0558 7.88198C14.1168 7.7873 14.2535 7.68259 14.3502 7.65491C14.4527 7.62502 15.05 7.67728 15.3745 7.74175C16.2601 7.92202 17.0681 8.29269 17.7365 8.83176ZM21.8471 19.3762C21.814 19.2793 21.7366 19.1299 21.6814 19.0441C21.3332 18.5184 19.4626 17.0545 18.5287 16.5757C17.9955 16.3018 17.6003 16.2105 17.3074 16.2962C16.9925 16.3848 16.8267 16.5314 16.2989 17.1873C16.0862 17.4502 15.8679 17.6965 15.8099 17.7352C15.6662 17.8348 15.3843 17.9151 15.1854 17.9151C14.724 17.9123 13.8868 17.6134 13.243 17.2205C12.7429 16.9161 12.1019 16.371 11.61 15.8313C11.0297 15.1977 10.6347 14.6387 10.3224 14.0077C9.91901 13.1969 9.81678 12.7016 9.9853 12.3391C10.0268 12.2477 10.082 12.1509 10.1069 12.1204C10.1317 12.0928 10.3915 11.8797 10.6788 11.6472C11.2425 11.199 11.3337 11.0966 11.4387 10.7894C11.5713 10.3992 11.5354 10.0007 11.3309 9.5995C11.1734 9.29508 10.7617 8.63095 10.4633 8.20204C10.0682 7.63754 9.08455 6.43102 8.88835 6.2677C8.53468 5.97994 8.08158 5.93009 7.58142 6.12384C7.05372 6.32862 6.06451 7.12558 5.64175 7.68181C5.26044 8.18544 5.11405 8.54239 5.09192 9.01283C5.07259 9.40023 5.10574 9.56074 5.31021 10.0561C6.91003 13.9413 9.29728 17.0434 12.5771 19.5063C14.2902 20.793 16.0668 21.7726 17.9098 22.4423C18.9846 22.8325 19.4516 22.8519 20.0014 22.5309C20.2335 22.3925 20.8082 21.8031 21.1287 21.3742C21.6593 20.6602 21.8554 20.3309 21.9107 20.068C21.9494 19.8881 21.919 19.5755 21.8471 19.3762ZM21.1407 10.617C21.4773 11.4937 21.6387 12.28 21.6741 13.2387C21.6797 13.4281 21.6771 13.7751 21.6648 14.0101C21.6393 14.4607 21.6148 14.5502 21.4851 14.6694C21.2766 14.8651 20.8702 14.8184 20.7161 14.5827C20.6356 14.4562 20.6243 14.3635 20.6398 13.8371C20.6846 12.2799 20.3696 11.0607 19.6109 9.84151C18.7043 8.37883 17.3482 7.39349 15.5848 6.91144C15.1351 6.78874 14.7561 6.71396 14.1667 6.63461C13.7828 6.58435 13.6987 6.56311 13.604 6.50479C13.3177 6.32144 13.3139 5.85718 13.5993 5.67105C13.7465 5.57279 13.8551 5.5684 14.3351 5.62987C15.7426 5.80576 16.9985 6.22398 18.0305 6.85596C18.7701 7.30955 19.2365 7.71704 19.837 8.4307C20.4721 9.19184 20.8084 9.7546 21.1407 10.617Z" />
</svg>
