<svg width="28" height="28" viewBox="0 0 28 28" xmlns="http://www.w3.org/2000/svg">
<rect x="0.5" y="0.5" width="27" height="27"/>
<path d="M17.7238 11.8375C17.6607 11.3233 17.503 10.9195 17.223 10.5618C16.8594 10.1013 16.3948 9.82547 15.7069 9.66188C15.2586 9.55284 15.0775 9.56536 14.9153 9.71383C14.7643 9.85293 14.7348 10.1318 14.8502 10.3124C14.9314 10.4434 15.025 10.4904 15.2855 10.5416C15.6323 10.6056 15.8719 10.6886 16.0899 10.8136C16.5527 11.0814 16.7681 11.5006 16.7912 12.1792C16.802 12.4978 16.8295 12.5957 16.9405 12.7087C17.1462 12.9153 17.5124 12.8751 17.6677 12.6279C17.7247 12.5348 17.7334 12.4942 17.7394 12.2779C17.7434 12.1439 17.7376 11.9446 17.7238 11.8375Z"/>
<path d="M19.5362 12.4173C19.4448 10.8418 18.8301 9.57424 17.73 8.68239C17.1101 8.18126 16.3609 7.83667 15.5396 7.66909C15.2388 7.60916 14.6849 7.56058 14.5899 7.58836C14.5002 7.6141 14.3734 7.71143 14.3169 7.79945C14.2571 7.89491 14.2436 8.10803 14.2946 8.2313C14.3769 8.43738 14.53 8.51019 14.9588 8.5478C15.6199 8.60578 16.3017 8.83862 16.8169 9.18331C17.4051 9.57578 17.8726 10.1126 18.1751 10.7434C18.4365 11.2853 18.5972 12.0664 18.5927 12.7658C18.5912 13.0188 18.6302 13.1616 18.7317 13.2661C18.8849 13.4267 19.1081 13.4618 19.3052 13.3551C19.5236 13.24 19.5746 13.0379 19.5362 12.4173Z" />
<path d="M21.5416 18.4847C21.5109 18.3947 21.4392 18.2558 21.3879 18.176C21.065 17.6873 19.3305 16.3264 18.4644 15.8813C17.9699 15.6267 17.6035 15.5418 17.3319 15.6215C17.0398 15.7039 16.8861 15.8402 16.3967 16.4499C16.1994 16.6943 15.997 16.9232 15.9432 16.9592C15.81 17.0518 15.5486 17.1265 15.3642 17.1265C14.9363 17.1239 14.1599 16.846 13.5629 16.4807C13.0992 16.1978 12.5048 15.691 12.0487 15.1894C11.5106 14.6003 11.1442 14.0806 10.8547 13.4941C10.4806 12.7404 10.3858 12.2799 10.5421 11.9428C10.5805 11.858 10.6318 11.768 10.6548 11.7396C10.6779 11.7139 10.9187 11.5158 11.1852 11.2997C11.7079 10.883 11.7924 10.7878 11.8898 10.5023C12.0128 10.1395 11.9795 9.76909 11.7899 9.39609C11.6438 9.11311 11.2621 8.49571 10.9853 8.09698C10.619 7.57221 9.7068 6.4506 9.52486 6.29878C9.1969 6.03127 8.77674 5.98494 8.31294 6.16505C7.8236 6.35542 6.9063 7.09629 6.51427 7.61337C6.16069 8.08155 6.02494 8.41339 6.00442 8.85072C5.98649 9.21085 6.01723 9.36006 6.20684 9.82056C7.69036 13.4323 9.90407 16.3161 12.9454 18.6057C14.534 19.8018 16.1815 20.7125 17.8905 21.3351C18.8872 21.6978 19.3202 21.7158 19.8301 21.4174C20.0453 21.2888 20.5782 20.7408 20.8754 20.3421C21.3674 19.6784 21.5493 19.3723 21.6005 19.1279C21.6364 18.9607 21.6082 18.67 21.5416 18.4847Z"/>
<path d="M21.3812 12.7792C21.3483 11.888 21.1987 11.157 20.8866 10.342C20.5784 9.54029 20.2666 9.01714 19.6776 8.30956C19.1208 7.64613 18.6883 7.26732 18.0024 6.84565C17.0455 6.25815 15.8809 5.86936 14.5757 5.70585C14.1306 5.64871 14.0299 5.65279 13.8934 5.74413C13.6288 5.91716 13.6323 6.34875 13.8977 6.51919C13.9856 6.57341 14.0636 6.59316 14.4196 6.63988C14.9661 6.71364 15.3176 6.78316 15.7346 6.89722C17.3698 7.34535 18.6273 8.26134 19.468 9.62109C20.1716 10.7544 20.4636 11.8879 20.4221 13.3355C20.4077 13.8249 20.4182 13.911 20.4928 14.0286C20.6357 14.2477 21.0126 14.2911 21.2059 14.1092C21.3262 13.9984 21.3489 13.9152 21.3726 13.4963C21.3839 13.2778 21.3864 12.9553 21.3812 12.7792Z" />
</svg>
